SRRun02_grf
version=1
nRows=24
nColumns=19
inDegrees=no
endheader
time	ground_force_r_vx	ground_force_r_vy	ground_force_r_vz	ground_force_r_px	ground_force_r_py	ground_force_r_pz	ground_force_r_mx	ground_force_r_my	ground_force_r_mz	ground_force_l_vx	ground_force_l_vy	ground_force_l_vz	ground_force_l_px	ground_force_l_py	ground_force_l_pz	ground_force_l_mx	ground_force_l_my	ground_force_l_mz
    144.99800000	      0.00000000	      0.00000000	      0.00000000	      0.00000000	      0.00000000	      0.00000000	      0.00000000	      0.00000000	      0.00000000	   -294.96387132	   1475.39394039	     16.42099483	      1.22788472	      0.00000000	     -0.40032716	      0.00003698	      4.96807221	      0.00009071
    144.99900000	      0.00000000	      0.00000000	      0.00000000	      0.00000000	      0.00000000	      0.00000000	      0.00000000	      0.00000000	      0.00000000	   -309.05021265	   1484.24494669	     44.73871117	      1.22086265	      0.00000000	     -0.39966110	      0.00003583	     -0.48276595	      0.00009461
    145.00000000	      0.00000000	      0.00000000	      0.00000000	      0.00000000	      0.00000000	      0.00000000	      0.00000000	      0.00000000	      0.00000000	   -316.60012489	   1492.90230209	     71.85178289	      1.21390122	      0.00000000	     -0.39895099	      0.00003456	     -5.11611160	      0.00009835
    145.00100000	      0.00000000	      0.00000000	      0.00000000	      0.00000000	      0.00000000	      0.00000000	      0.00000000	      0.00000000	      0.00000000	   -317.90479320	   1501.32675636	     96.49150969	      1.20705219	      0.00000000	     -0.39823867	      0.00003322	     -8.71373231	      0.00010162
    145.00200000	      0.00000000	      0.00000000	      0.00000000	      0.00000000	      0.00000000	      0.00000000	      0.00000000	      0.00000000	      0.00000000	   -313.72177154	   1509.51748643	    117.49092021	      1.20034457	      0.00000000	     -0.39756814	      0.00003189	    -11.13313985	      0.00010420
    145.00300000	      0.00000000	      0.00000000	      0.00000000	      0.00000000	      0.00000000	      0.00000000	      0.00000000	      0.00000000	      0.00000000	   -305.18167450	   1517.50693904	    133.85267522	      1.19378511	      0.00000000	     -0.39698275	      0.00003066	    -12.31315739	      0.00010597
    145.00400000	      0.00000000	      0.00000000	      0.00000000	      0.00000000	      0.00000000	      0.00000000	      0.00000000	      0.00000000	      0.00000000	   -293.66551172	   1525.35233241	    144.81067552	      1.18736198	      0.00000000	     -0.39652214	      0.00002960	    -12.27379070	      0.00010691
    145.00500000	      0.00000000	      0.00000000	      0.00000000	      0.00000000	      0.00000000	      0.00000000	      0.00000000	      0.00000000	      0.00000000	   -280.66521756	   1533.12541652	    149.88071777	      1.18105029	      0.00000000	     -0.39621898	      0.00002879	    -11.11060792	      0.00010713
    145.00600000	      0.00000000	      0.00000000	      0.00000000	      0.00000000	      0.00000000	      0.00000000	      0.00000000	      0.00000000	      0.00000000	   -267.64111063	   1540.90247057	    148.89623368	      1.17481798	      0.00000000	     -0.39609609	      0.00002828	     -8.98415887	      0.00010679
    145.00700000	      0.00000000	      0.00000000	      0.00000000	      0.00000000	      0.00000000	      0.00000000	      0.00000000	      0.00000000	      0.00000000	   -255.88979830	   1548.75598755	    142.02599789	      1.16863097	      0.00000000	     -0.39616404	      0.00002809	     -6.10524862	      0.00010610
    145.00800000	      0.00000000	      0.00000000	      0.00000000	      0.00000000	      0.00000000	      0.00000000	      0.00000000	      0.00000000	      0.00000000	   -246.43449126	   1556.74848546	    129.77145288	      1.16245707	      0.00000000	     -0.39641981	      0.00002823	     -2.71717135	      0.00010529
    145.00900000	      0.00000000	      0.00000000	      0.00000000	      0.00000000	      0.00000000	      0.00000000	      0.00000000	      0.00000000	      0.00000000	   -239.94713280	   1564.92800292	    112.94231877	      1.15626904	      0.00000000	     -0.39684670	      0.00002868	      0.92367535	      0.00010458
    145.01000000	      0.00000000	      0.00000000	      0.00000000	      0.00000000	      0.00000000	      0.00000000	      0.00000000	      0.00000000	      0.00000000	   -236.70851130	   1573.32442577	     92.61086325	      1.15004728	      0.00000000	     -0.39741563	      0.00002937	      4.56713867	      0.00010411
    145.01100000	      0.00000000	      0.00000000	      0.00000000	      0.00000000	      0.00000000	      0.00000000	      0.00000000	      0.00000000	      0.00000000	   -236.60880827	   1581.94597647	     70.04745187	      1.14378270	      0.00000000	     -0.39808759	      0.00003024	      7.98697391	      0.00010398
    145.01200000	      0.00000000	      0.00000000	      0.00000000	      0.00000000	      0.00000000	      0.00000000	      0.00000000	      0.00000000	      0.00000000	   -239.18702174	   1590.77599872	     46.64203879	      1.13747954	      0.00000000	     -0.39881695	      0.00003121	     10.99549726	      0.00010419
    145.01300000	      0.00000000	      0.00000000	      0.00000000	      0.00000000	      0.00000000	      0.00000000	      0.00000000	      0.00000000	      0.00000000	   -243.70378114	   1599.77113413	     23.81744548	      1.13115745	      0.00000000	     -0.39955506	      0.00003217	     13.45436500	      0.00010466
    145.01400000	      0.00000000	      0.00000000	      0.00000000	      0.00000000	      0.00000000	      0.00000000	      0.00000000	      0.00000000	      0.00000000	   -249.23875846	   1608.86227723	      2.94054356	      1.12485165	      0.00000000	     -0.40025383	      0.00003306	     15.28097782	      0.00010527
    145.01500000	      0.00000000	      0.00000000	      0.00000000	      0.00000000	      0.00000000	      0.00000000	      0.00000000	      0.00000000	      0.00000000	   -254.80159309	   1617.95906444	    -14.76280595	      1.11861079	      0.00000000	     -0.40086916	      0.00003378	     16.45024247	      0.00010579
    145.01600000	      0.00000000	      0.00000000	      0.00000000	      0.00000000	      0.00000000	      0.00000000	      0.00000000	      0.00000000	      0.00000000	   -259.44419593	   1626.95771131	    -28.28358673	      1.11249246	      0.00000000	     -0.40136394	      0.00003427	     16.99170159	      0.00010599
    145.01700000	      0.00000000	      0.00000000	      0.00000000	      0.00000000	      0.00000000	      0.00000000	      0.00000000	      0.00000000	      0.00000000	   -262.36258430	   1635.75129405	    -36.89113107	      1.10655704	      0.00000000	     -0.40171068	      0.00003451	     16.98246379	      0.00010563
    145.01800000	      0.00000000	      0.00000000	      0.00000000	      0.00000000	      0.00000000	      0.00000000	      0.00000000	      0.00000000	      0.00000000	   -262.97799963	   1644.24102854	    -40.17574895	      1.10086075	      0.00000000	     -0.40189340	      0.00003447	     16.53677157	      0.00010447
    145.01900000	      0.00000000	      0.00000000	      0.00000000	      0.00000000	      0.00000000	      0.00000000	      0.00000000	      0.00000000	      0.00000000	   -260.98970462	   1652.34666550	    -38.06907775	      1.09544918	      0.00000000	     -0.40190852	      0.00003416	     15.79325334	      0.00010233
    145.02000000	      0.00000000	      0.00000000	      0.00000000	      0.00000000	      0.00000000	      0.00000000	      0.00000000	      0.00000000	      0.00000000	   -256.39510723	   1660.01412137	    -30.84064806	      1.09035249	      0.00000000	     -0.40176480	      0.00003360	     14.90097389	      0.00009914
    145.02100000	      0.00000000	      0.00000000	      0.00000000	      0.00000000	      0.00000000	      0.00000000	      0.00000000	      0.00000000	      0.00000000	   -249.47635002	   1667.21921020	    -19.07148024	      1.08558317	      0.00000000	     -0.40148213	      0.00003282	     14.00545702	      0.00009495
